bicep_curl
version=1
nRows=101
nColumns=3
inDegrees=yes

# SIMM Motion File Header:
name bicep_curl
datacolumns 3
datarows 101
otherdata 1
range 0.0000 1.0000
endheader
time	/jointset/r_shoulder/r_shoulder_elev/value	/jointset/r_elbow/r_elbow_flex/value
0.0000	0.0000	140.0000
0.0100	0.0000	138.6000
0.0200	0.0000	137.2000
0.0300	0.0000	135.8000
0.0400	0.0000	134.4000
0.0500	0.0000	133.0000
0.0600	0.0000	131.6000
0.0700	0.0000	130.2000
0.0800	0.0000	128.8000
0.0900	0.0000	127.4000
0.1000	0.0000	126.0000
0.1100	0.0000	124.6000
0.1200	0.0000	123.2000
0.1300	0.0000	121.8000
0.1400	0.0000	120.4000
0.1500	0.0000	119.0000
0.1600	0.0000	117.6000
0.1700	0.0000	116.2000
0.1800	0.0000	114.8000
0.1900	0.0000	113.4000
0.2000	0.0000	112.0000
0.2100	0.0000	110.6000
0.2200	0.0000	109.2000
0.2300	0.0000	107.8000
0.2400	0.0000	106.4000
0.2500	0.0000	105.0000
0.2600	0.0000	103.6000
0.2700	0.0000	102.2000
0.2800	0.0000	100.8000
0.2900	0.0000	99.4000
0.3000	0.0000	98.0000
0.3100	0.0000	96.6000
0.3200	0.0000	95.2000
0.3300	0.0000	93.8000
0.3400	0.0000	92.4000
0.3500	0.0000	91.0000
0.3600	0.0000	89.6000
0.3700	0.0000	88.2000
0.3800	0.0000	86.8000
0.3900	0.0000	85.4000
0.4000	0.0000	84.0000
0.4100	0.0000	82.6000
0.4200	0.0000	81.2000
0.4300	0.0000	79.8000
0.4400	0.0000	78.4000
0.4500	0.0000	77.0000
0.4600	0.0000	75.6000
0.4700	0.0000	74.2000
0.4800	0.0000	72.8000
0.4900	0.0000	71.4000
0.5000	0.0000	70.0000
0.5100	0.0000	68.6000
0.5200	0.0000	67.2000
0.5300	0.0000	65.8000
0.5400	0.0000	64.4000
0.5500	0.0000	63.0000
0.5600	0.0000	61.6000
0.5700	0.0000	60.2000
0.5800	0.0000	58.8000
0.5900	0.0000	57.4000
0.6000	0.0000	56.0000
0.6100	0.0000	54.6000
0.6200	0.0000	53.2000
0.6300	0.0000	51.8000
0.6400	0.0000	50.4000
0.6500	0.0000	49.0000
0.6600	0.0000	47.6000
0.6700	0.0000	46.2000
0.6800	0.0000	44.8000
0.6900	0.0000	43.4000
0.7000	0.0000	42.0000
0.7100	0.0000	40.6000
0.7200	0.0000	39.2000
0.7300	0.0000	37.8000
0.7400	0.0000	36.4000
0.7500	0.0000	35.0000
0.7600	0.0000	33.6000
0.7700	0.0000	32.2000
0.7800	0.0000	30.8000
0.7900	0.0000	29.4000
0.8000	0.0000	28.0000
0.8100	0.0000	26.6000
0.8200	0.0000	25.2000
0.8300	0.0000	23.8000
0.8400	0.0000	22.4000
0.8500	0.0000	21.0000
0.8600	0.0000	19.6000
0.8700	0.0000	18.2000
0.8800	0.0000	16.8000
0.8900	0.0000	15.4000
0.9000	0.0000	14.0000
0.9100	0.0000	12.6000
0.9200	0.0000	11.2000
0.9300	0.0000	9.8000
0.9400	0.0000	8.4000
0.9500	0.0000	7.0000
0.9600	0.0000	5.6000
0.9700	0.0000	4.2000
0.9800	0.0000	2.8000
0.9900	0.0000	1.4000
1.0000	0.0000	0.0000
